<?xml version="1.0" encoding="utf-8"?>
<!-- Generator: Adobe Illustrator 27.0.1, SVG Export Plug-In . SVG Version: 6.00 Build 0)  -->
<svg version="1.1" id="Layer_1" xmlns="http://www.w3.org/2000/svg" xmlns:xlink="http://www.w3.org/1999/xlink" x="0px" y="0px"
	 viewBox="0 0 508.1 332.2" style="enable-background:new 0 0 508.1 332.2;" xml:space="preserve">
<style type="text/css">
	.st0{fill:#020024;}
	.st1{fill:#0600C2;}
	.st2{fill:#3A31D8;}
</style>
<g>
	<g>
		<path class="st0" d="M265.6,326.6h-92.7L160,112.2V73.5h-9.7v38.7l-12.9,214.4H44.8l-9.7-282h48.4l6.4,214.3v36.3h9.7v-36.3
			l12.9-214.4h85.4l12.9,214.4v36.3h9.7v-36.3l6.4-214.4h48.3L265.6,326.6L265.6,326.6z"/>
		<path class="st0" d="M450.1,130.7c0-11.3-4.4-21.1-13.1-29.4c-8.7-8.3-21-12.5-36.9-12.5c-13.4,0-24,2.8-31.8,8.3
			c-7.8,5.5-11.7,13-11.7,22.4c0,4.8,0.9,9.2,2.8,13.1c1.9,3.9,5.2,7.4,9.9,10.5c4.7,3.1,10.9,5.8,18.5,8.3
			c7.7,2.4,17.4,4.7,29.2,6.9c29.5,5.4,52.1,14.4,67.7,27c15.6,12.6,23.4,31.3,23.4,56v4.8c0,13.2-2.4,25-7,35.7
			c-4.7,10.6-11.5,19.7-20.4,27.2c-8.9,7.5-19.6,13.3-32.2,17.3c-12.6,4-26.9,6-42.7,6c-18.5,0-34.9-2.6-49-7.9
			s-25.9-12.5-35.2-21.8c-9.4-9.3-16.5-20.1-21.4-32.6c-4.8-12.5-7.2-26.1-7.2-40.9V217h53.2v9.7c0,16.9,4.9,30.4,14.7,40.5
			c9.8,10.1,25,15.1,45.7,15.1c16.1,0,28.1-3.5,35.9-10.5c7.8-7,11.7-15.3,11.7-25c0-4.6-0.8-8.9-2.4-13.1
			c-1.6-4.2-4.4-7.9-8.5-11.3s-9.5-6.4-16.5-9.1c-7-2.7-15.9-5-26.6-6.9c-14.2-2.4-27.3-5.6-39.1-9.5c-11.8-3.9-22.1-9.1-30.8-15.5
			c-8.7-6.4-15.5-14.5-20.4-24.2s-7.2-21.5-7.2-35.5v-2.4c0-11.6,2.4-22.2,7-32c4.7-9.8,11.3-18.3,19.7-25.6
			c8.5-7.2,18.7-12.9,30.6-16.9c12-4,25.3-6,40.1-6c16.6,0,31.4,2.3,44.3,7s23.7,11.1,32.4,19.1c8.7,8.1,15.3,17.3,19.7,27.8
			c4.4,10.5,6.6,21.5,6.6,33v14.5h-53.2L450.1,130.7L450.1,130.7z"/>
	</g>
	<g>
		<path class="st1" d="M230.5,287.7h-92.7L124.9,73.3V34.7h-9.7v38.7l-12.9,214.3H9.7L0,5.6h48.3L54.8,220v36.3h9.7V220L77.4,5.6
			h85.4L175.7,220v36.3h9.7V220l6.4-214.4h48.3L230.5,287.7L230.5,287.7z"/>
		<path class="st1" d="M415,91.9c0-11.3-4.4-21.1-13.1-29.4c-8.7-8.3-21-12.5-36.9-12.5c-13.4,0-24,2.8-31.8,8.3
			c-7.8,5.5-11.7,13-11.7,22.4c0,4.8,0.9,9.2,2.8,13.1s5.2,7.4,9.9,10.5c4.7,3.1,10.9,5.8,18.5,8.3c7.7,2.4,17.4,4.7,29.2,6.8
			c29.5,5.4,52.1,14.4,67.7,27c15.6,12.6,23.4,31.3,23.4,56v4.8c0,13.2-2.4,25.1-7,35.7c-4.7,10.6-11.5,19.7-20.4,27.2
			c-8.9,7.5-19.6,13.3-32.2,17.3c-12.6,4-26.9,6-42.7,6c-18.5,0-34.9-2.6-49-7.9s-25.9-12.5-35.2-21.8c-9.4-9.3-16.5-20.1-21.4-32.6
			c-4.8-12.5-7.2-26.1-7.2-40.9v-12.1h53.2v9.7c0,16.9,4.9,30.4,14.7,40.5c9.8,10.1,25,15.1,45.7,15.1c16.1,0,28.1-3.5,35.9-10.5
			c7.8-7,11.7-15.3,11.7-25c0-4.6-0.8-8.9-2.4-13.1c-1.6-4.2-4.4-7.9-8.5-11.3s-9.5-6.4-16.5-9.1c-7-2.7-15.9-5-26.6-6.9
			c-14.2-2.4-27.3-5.6-39.1-9.5c-11.8-3.9-22.1-9.1-30.8-15.5c-8.7-6.4-15.5-14.5-20.4-24.2S267.5,97,267.5,83v-2.4
			c0-11.6,2.4-22.2,7-32c4.7-9.8,11.3-18.3,19.7-25.6C302.8,15.7,313,10.1,325,6c12-4,25.3-6,40.1-6c16.6,0,31.4,2.3,44.3,7.1
			s23.7,11.1,32.4,19.1c8.7,8.1,15.3,17.3,19.7,27.8c4.4,10.5,6.6,21.5,6.6,33v14.5H415L415,91.9L415,91.9z"/>
	</g>
	<g>
		<path class="st2" d="M252.2,305.8h-92.7L146.7,91.5V52.8H137v38.7l-12.9,214.4H31.5l-9.7-282h48.3l6.4,214.4v36.3h9.7v-36.3
			L99.1,23.8h85.4l12.9,214.4v36.3h9.7v-36.3l6.4-214.4h48.3L252.2,305.8L252.2,305.8z"/>
		<path class="st2" d="M436.8,110c0-11.3-4.4-21.1-13.1-29.4c-8.7-8.3-21-12.5-36.9-12.5c-13.4,0-24,2.8-31.8,8.3
			c-7.8,5.5-11.7,13-11.7,22.4c0,4.8,0.9,9.2,2.8,13.1s5.2,7.4,9.9,10.5c4.7,3.1,10.9,5.8,18.5,8.3c7.7,2.4,17.4,4.7,29.2,6.9
			c29.5,5.4,52.1,14.4,67.7,27c15.6,12.6,23.4,31.3,23.4,56v4.8c0,13.2-2.4,25.1-7,35.7c-4.7,10.6-11.5,19.7-20.4,27.2
			c-8.9,7.5-19.6,13.3-32.2,17.3c-12.6,4-26.9,6-42.7,6c-18.5,0-34.9-2.6-49-7.9s-25.9-12.5-35.2-21.8c-9.4-9.3-16.5-20.1-21.4-32.6
			c-4.8-12.5-7.2-26.1-7.2-40.9v-12.1h53.2v9.7c0,16.9,4.9,30.4,14.7,40.5c9.8,10.1,25,15.1,45.7,15.1c16.1,0,28.1-3.5,35.9-10.5
			c7.8-7,11.7-15.3,11.7-25c0-4.6-0.8-8.9-2.4-13.1c-1.6-4.2-4.4-7.9-8.5-11.3s-9.5-6.4-16.5-9.1c-7-2.7-15.9-5-26.6-6.9
			c-14.2-2.4-27.3-5.6-39.1-9.5c-11.8-3.9-22.1-9.1-30.8-15.5c-8.7-6.4-15.5-14.5-20.4-24.2s-7.2-21.5-7.2-35.5v-2.4
			c0-11.6,2.4-22.2,7-32c4.7-9.8,11.3-18.3,19.7-25.6c8.5-7.2,18.7-12.9,30.6-16.9c12-4,25.3-6,40.1-6c16.6,0,31.4,2.4,44.3,7
			s23.7,11.1,32.4,19.1c8.7,8.1,15.3,17.3,19.7,27.8c4.4,10.5,6.6,21.5,6.6,33v14.5h-53.2L436.8,110L436.8,110z"/>
	</g>
</g>
</svg>
