<?xml version="1.0" encoding="utf-8"?>
<!-- Generator: Adobe Illustrator 27.0.1, SVG Export Plug-In . SVG Version: 6.00 Build 0)  -->
<svg version="1.1" id="uuid-15dbd9c2-d659-4e6f-ab5b-2ccc7de3a6aa"
	 xmlns="http://www.w3.org/2000/svg" xmlns:xlink="http://www.w3.org/1999/xlink" x="0px" y="0px" viewBox="0 0 1000 1145.2"
	 style="enable-background:new 0 0 1000 1145.2;" xml:space="preserve">
<style type="text/css">
	.st0{fill:#222226;}
</style>
<g id="uuid-d85cbbc8-f6b2-4de1-9a22-3663509493d7">
	<path class="st0" d="M106,1092.2l91,53v-106L106,1092.2z M112,1092.2l81.5-47v94L112,1092.2z"/>
</g>
<g id="uuid-a73b0606-5c9f-40e3-bf1b-992ab4e55694">
	<path class="st0" d="M94,1092.2l-91-53v106L94,1092.2z M88,1092.2l-81.5,47v-94L88,1092.2z"/>
</g>
<g id="uuid-cee88536-8905-49dd-bc65-65b0c8df457d">
	<path class="st0" d="M97,1087l0.4-105.3l-91.8,53L97,1087z M94,1081.8l-81.4-47.1l81.4-47L94,1081.8C94,1081.8,94,1081.8,94,1081.8
		z"/>
</g>
<g id="uuid-6dc51f02-881c-445f-b653-9e57729e96c2">
	<path class="st0" d="M103,1087l91.4-52.3l-91.8-53C102.6,981.7,103,1087,103,1087z M106,1081.8l0.1-94.1l81.4,47L106,1081.8
		L106,1081.8L106,1081.8z"/>
</g>
<g id="uuid-ec5b4a46-617a-4172-9b46-81fb89c64013">
	<path class="st0" d="M306,1092.2l91,53v-106L306,1092.2z M312,1092.2l81.5-47v94L312,1092.2z"/>
</g>
<g id="uuid-6b36e000-44be-4c87-8ce9-cf29bf7ffb4c">
	<path class="st0" d="M294,1092.2l-91-53v106L294,1092.2z M288,1092.2l-81.5,47v-94L288,1092.2z"/>
</g>
<g id="uuid-06720082-3f68-40ea-94ff-b09c2f9e7a28">
	<path class="st0" d="M297,1087l0.4-105.3l-91.8,53L297,1087z M294,1081.8l-81.4-47.1l81.4-47L294,1081.8L294,1081.8z"/>
</g>
<g id="uuid-135acc29-c912-4bdd-9e1f-a4a8bb15c2df">
	<path class="st0" d="M497,1087l0.4-105.3l-91.8,53L497,1087L497,1087L497,1087z M494,1081.8l-81.5-47.1l81.4-47L494,1081.8
		L494,1081.8L494,1081.8z"/>
</g>
<g id="uuid-1d22a24e-1205-4e7a-a4e9-4356fcc85ca7">
	<path class="st0" d="M694,1092.2l-91-53v106L694,1092.2z M688,1092.2l-81.5,47v-94L688,1092.2z"/>
</g>
<g id="uuid-c0fca104-ac5f-4430-8fd9-660839d43c4f">
	<path class="st0" d="M697,1087l0.4-105.3l-91.8,53L697,1087L697,1087L697,1087z M694,1081.8l-81.5-47.1l81.4-47L694,1081.8
		L694,1081.8L694,1081.8z"/>
</g>
<g id="uuid-96c878ef-5fe8-4a86-9e89-5a7c5528cd8e">
	<path class="st0" d="M703,1087l91.4-52.3l-91.8-53L703,1087L703,1087L703,1087z M706,1081.8l0-94.1l81.4,47L706,1081.8L706,1081.8
		L706,1081.8z"/>
</g>
<g id="uuid-6d1d43c6-5df2-45ab-8db0-46cc46976bfd">
	<path class="st0" d="M906,1092.2l91,53v-106L906,1092.2z M912,1092.2l81.5-47v94L912,1092.2z"/>
</g>
<g id="uuid-ab606796-61e3-46be-9650-9eba29096b83">
	<path class="st0" d="M897,1087l0.4-105.3l-91.8,53L897,1087L897,1087L897,1087z M894,1081.8l-81.5-47.1l81.4-47L894,1081.8
		L894,1081.8L894,1081.8z"/>
</g>
<g id="uuid-ff88d7c4-748b-47d1-9f0a-6ee2956262ea">
	<path class="st0" d="M6,919l91,53V866L6,919z M12,919l81.5-47v94L12,919z"/>
</g>
<g id="uuid-e78911a9-8bfa-4112-ae8c-759595d1ab80">
	<path class="st0" d="M3,924.2l-0.4,105.3l91.8-53L3,924.2z M6,929.4l81.4,47.1l-81.4,47L6,929.4L6,929.4z"/>
</g>
<g id="uuid-4bbbd0c3-ca78-441d-9b7a-7ff69535faf4">
	<path class="st0" d="M3,913.8l91.4-52.3l-91.8-53L3,913.8z M6,908.6l0.1-94.1l81.4,47L6,908.6L6,908.6z"/>
</g>
<g id="uuid-750eadba-8325-4c14-b603-db1ca7aab96f">
	<path class="st0" d="M206,919l91,53V866L206,919z M212,919l81.5-47v94L212,919z"/>
</g>
<g id="uuid-a0cb36f5-f4f6-48f8-b184-6cf9d921b845">
	<path class="st0" d="M203,924.2l-0.4,105.3l91.8-53L203,924.2L203,924.2L203,924.2z M206,929.4l81.5,47.1l-81.4,47L206,929.4
		L206,929.4L206,929.4z"/>
</g>
<g id="uuid-c9e2f589-2c33-4dc3-b83a-a593ca7ea9bc">
	<path class="st0" d="M197,924.2l-91.4,52.3l91.8,53L197,924.2L197,924.2z M194,929.4l-0.1,94.1l-81.4-47L194,929.4L194,929.4
		L194,929.4z"/>
</g>
<g id="uuid-847afc11-4164-4973-adae-42620cf4b04b">
	<path class="st0" d="M194,919l-91-53v106L194,919z M188,919l-81.5,47v-94L188,919z"/>
</g>
<g id="uuid-60023538-4502-476b-98d4-2a0ef15efd26">
	<path class="st0" d="M197,913.8l0.4-105.3l-91.8,53L197,913.8z M194,908.6l-81.4-47.1l81.4-47L194,908.6L194,908.6L194,908.6z"/>
</g>
<g id="uuid-c4e56fb9-42db-4596-b3e4-b39a16f11ff4">
	<path class="st0" d="M203,913.8l91.4-52.3l-91.8-53L203,913.8L203,913.8L203,913.8z M206,908.6l0.1-94.1l81.4,47L206,908.6
		L206,908.6L206,908.6z"/>
</g>
<g id="uuid-76c16786-7493-42ca-aed6-85d98809c367">
	<path class="st0" d="M403,924.2l-0.4,105.3l91.8-53L403,924.2L403,924.2L403,924.2z M406,929.4l81.5,47.1l-81.4,47L406,929.4
		L406,929.4L406,929.4z"/>
</g>
<g id="uuid-a25639d6-fdeb-4921-bd4b-a8eadd1e45ad">
	<path class="st0" d="M397,924.2l-91.4,52.3l91.8,53L397,924.2L397,924.2L397,924.2z M394,929.4l0,94.1l-81.4-47L394,929.4
		L394,929.4z"/>
</g>
<g id="uuid-ab5279b9-e91f-467d-be2b-625e32b789da">
	<path class="st0" d="M394,919l-91-53v106L394,919z M388,919l-81.5,47v-94L388,919z"/>
</g>
<g id="uuid-e03eb052-234f-45f5-b95d-5bfc703d13e4">
	<path class="st0" d="M397,913.8l0.4-105.3l-91.8,53L397,913.8L397,913.8L397,913.8z M394,908.6l-81.5-47.1l81.4-47L394,908.6
		L394,908.6L394,908.6z"/>
</g>
<g id="uuid-18fbed50-05a2-4b6f-a28c-c96f6ae81283">
	<path class="st0" d="M403,913.8l91.4-52.3l-91.8-53L403,913.8L403,913.8L403,913.8z M406,908.6l0-94.1l81.4,47L406,908.6L406,908.6
		z"/>
</g>
<g id="uuid-ecfa3cb6-6a90-4371-98c5-2bee7b5b33c6">
	<path class="st0" d="M606,919l91,53V866L606,919z M612,919l81.5-47v94L612,919z"/>
</g>
<g id="uuid-3236838a-5bb6-4358-ad27-ab436b727603">
	<path class="st0" d="M597,924.2l-91.4,52.3l91.8,53L597,924.2L597,924.2z M594,929.4l0,94.1l-81.4-47L594,929.4L594,929.4
		L594,929.4z"/>
</g>
<g id="uuid-9d5f3178-6715-419b-8ab7-05bcc47b5b50">
	<path class="st0" d="M594,919l-91-53v106L594,919z M588,919l-81.5,47v-94L588,919z"/>
</g>
<g id="uuid-648a2d87-aae8-42f6-8ce6-0ace0ad16e6d">
	<path class="st0" d="M603,913.8l91.4-52.3l-91.8-53L603,913.8L603,913.8L603,913.8z M606,908.6l0-94.1l81.4,47L606,908.6L606,908.6
		L606,908.6z"/>
</g>
<g id="uuid-b0a35f8e-dc9d-4b34-8321-039062925ca6">
	<path class="st0" d="M794,919l-91-53v106L794,919z M788,919l-81.5,47v-94L788,919z"/>
</g>
<g id="uuid-87d3b8b9-52a8-4bfb-92d4-1b80804273f8">
	<path class="st0" d="M106,745.8l91,53v-106L106,745.8z M112,745.8l81.5-47v94L112,745.8z"/>
</g>
<g id="uuid-def868dd-a6b0-4ad8-85a1-eeacddfecd7e">
	<path class="st0" d="M103,751l-0.4,105.3l91.8-53C194.4,803.3,103,751,103,751z M106,756.2l81.4,47.1l-81.4,47L106,756.2
		C106,756.2,106,756.2,106,756.2z"/>
</g>
<g id="uuid-e282f05e-cf99-47e1-97d1-64c71ca7a171">
	<path class="st0" d="M97,751L5.6,803.3l91.8,53L97,751z M94,756.2l-0.1,94.1l-81.4-47L94,756.2C94,756.2,94,756.2,94,756.2z"/>
</g>
<g id="uuid-df55953b-6860-4e2a-83d8-41b6c1e0aff4">
	<path class="st0" d="M94,745.8l-91-53v106L94,745.8z M88,745.8l-81.5,47v-94L88,745.8z"/>
</g>
<g id="uuid-e13587cf-52b1-4cf1-abe6-27b8a37cf0c6">
	<path class="st0" d="M97,740.6l0.4-105.3l-91.8,53L97,740.6z M94,735.4l-81.4-47.1l81.4-47L94,735.4C94,735.4,94,735.4,94,735.4z"
		/>
</g>
<g id="uuid-4e13b9ce-e0a7-4ba0-b66e-3ece9d4f7bfc">
	<path class="st0" d="M103,740.6l91.4-52.3l-91.8-53C102.6,635.3,103,740.6,103,740.6z M106,735.4l0.1-94.1l81.4,47L106,735.4
		C106,735.4,106,735.4,106,735.4z"/>
</g>
<g id="uuid-95f0d73c-da8f-4319-9a77-e2506e595100">
	<path class="st0" d="M303,751l-0.4,105.3l91.8-53L303,751L303,751L303,751z M306,756.2l81.5,47.1l-81.4,47L306,756.2L306,756.2
		L306,756.2z"/>
</g>
<g id="uuid-f137cbbb-71b7-4769-a438-132168adb469">
	<path class="st0" d="M297,751l-91.4,52.3l91.8,53L297,751L297,751L297,751z M294,756.2l0,94.1l-81.4-47L294,756.2L294,756.2z"/>
</g>
<g id="uuid-8471bf13-caa1-4a04-ab5a-ee175caca7e1">
	<path class="st0" d="M294,745.8l-91-53v106L294,745.8z M288,745.8l-81.5,47v-94L288,745.8z"/>
</g>
<g id="uuid-fc3d917c-bcb2-4bbb-b358-e749534155a6">
	<path class="st0" d="M297,740.6l0.4-105.3l-91.8,53L297,740.6z M294,735.4l-81.4-47.1l81.4-47L294,735.4L294,735.4z"/>
</g>
<g id="uuid-6e808750-3e71-4541-a2cd-6f3b30cc7295">
	<path class="st0" d="M303,740.6l91.4-52.3l-91.8-53L303,740.6L303,740.6L303,740.6z M306,735.4l0-94.1l81.4,47L306,735.4L306,735.4
		z"/>
</g>
<g id="uuid-53449542-e881-43ea-af59-227299674bbb">
	<path class="st0" d="M506,745.8l91,53v-106L506,745.8z M512,745.8l81.5-47v94L512,745.8z"/>
</g>
<g id="uuid-6339ed56-5958-47db-aa23-3977db72755a">
	<path class="st0" d="M497,751l-91.4,52.3l91.8,53L497,751L497,751L497,751z M494,756.2l0,94.1l-81.4-47L494,756.2L494,756.2z"/>
</g>
<g id="uuid-86039867-84b6-41ef-be2b-99eeec0a634b">
	<path class="st0" d="M494,745.8l-91-53v106L494,745.8z M488,745.8l-81.5,47v-94L488,745.8z"/>
</g>
<g id="uuid-e660b102-6100-4856-be75-3af162e8a757">
	<path class="st0" d="M706,745.8l91,53v-106L706,745.8z M712,745.8l81.5-47v94L712,745.8z"/>
</g>
<g id="uuid-05cf4653-8661-482f-9a80-482bead10b8b">
	<path class="st0" d="M703,751l-0.4,105.3l91.8-53L703,751L703,751L703,751z M706,756.2l81.5,47.1l-81.4,47L706,756.2L706,756.2
		L706,756.2z"/>
</g>
<g id="uuid-852e744e-0da3-4cfa-91fb-cf766f05edbf">
	<path class="st0" d="M694,745.8l-91-53v106L694,745.8z M688,745.8l-81.5,47v-94L688,745.8z"/>
</g>
<g id="uuid-72ebf764-26af-45fc-b9b4-f27b47a127a8">
	<path class="st0" d="M697,740.6l0.4-105.3l-91.8,53L697,740.6L697,740.6L697,740.6z M694,735.4l-81.5-47.1l81.4-47L694,735.4
		L694,735.4L694,735.4z"/>
</g>
<g id="uuid-27806678-7431-4447-af7a-0386cb2de505">
	<path class="st0" d="M897,740.6l0.4-105.3l-91.8,53L897,740.6L897,740.6L897,740.6z M894,735.4l-81.5-47.1l81.4-47L894,735.4
		L894,735.4L894,735.4z"/>
</g>
<g id="uuid-169128ec-b04c-43cf-a5b7-e3fe38e53782">
	<path class="st0" d="M903,740.6l91.4-52.3l-91.8-53L903,740.6L903,740.6L903,740.6z M906,735.4l0-94.1l81.4,47L906,735.4L906,735.4
		L906,735.4z"/>
</g>
<g id="uuid-b19ce922-b01b-4017-b0c6-c96b626d92f7">
	<path class="st0" d="M6,572.6l91,53v-106L6,572.6z M12,572.6l81.5-47v94L12,572.6z"/>
</g>
<g id="uuid-2d81f3f0-cf2b-47dc-bbf7-1a375451a0b8">
	<path class="st0" d="M3,577.8L2.6,683.1l91.8-53L3,577.8z M6,583l81.4,47.1L6,677.1L6,583L6,583z"/>
</g>
<g id="uuid-6f108d90-830e-4726-ac7e-8c9bb6fba453">
	<path class="st0" d="M3,567.4l91.4-52.3l-91.8-53L3,567.4z M6,562.2l0.1-94.1l81.4,47L6,562.2L6,562.2z"/>
</g>
<g id="uuid-932121a3-089f-418d-a8a5-6428da9703bf">
	<path class="st0" d="M206,572.6l91,53v-106L206,572.6z M212,572.6l81.5-47v94L212,572.6z"/>
</g>
<g id="uuid-49d3781b-8b53-4e0a-a486-c9b0e0180187">
	<path class="st0" d="M203,577.8l-0.4,105.3l91.8-53L203,577.8L203,577.8L203,577.8z M206,583l81.5,47.1l-81.4,47L206,583L206,583
		L206,583z"/>
</g>
<g id="uuid-b604b7da-553b-400d-b43f-a224b62c5a8d">
	<path class="st0" d="M197,577.8l-91.4,52.3l91.8,53L197,577.8z M194,583l-0.1,94.1l-81.4-47L194,583L194,583L194,583z"/>
</g>
<g id="uuid-53dad97c-b259-4397-af45-92bcebb9818b">
	<path class="st0" d="M194,572.6l-91-53v106L194,572.6z M188,572.6l-81.5,47v-94L188,572.6z"/>
</g>
<g id="uuid-05fad7f1-347b-4fb6-95ac-2833393e5c1e">
	<path class="st0" d="M197,567.4l0.4-105.3l-91.8,53L197,567.4z M194,562.2l-81.4-47.1l81.4-47L194,562.2L194,562.2L194,562.2z"/>
</g>
<g id="uuid-7456b516-0882-457e-b4e9-8b3487c9ab5c">
	<path class="st0" d="M203,567.4l91.4-52.3l-91.8-53L203,567.4L203,567.4L203,567.4z M206,562.2l0.1-94.1l81.4,47L206,562.2
		L206,562.2L206,562.2z"/>
</g>
<g id="uuid-70f810b2-91f0-4b5e-8cba-83cfce2dd917">
	<path class="st0" d="M403,577.8l-0.4,105.3l91.8-53L403,577.8L403,577.8L403,577.8z M406,583l81.5,47.1l-81.4,47L406,583L406,583
		L406,583z"/>
</g>
<g id="uuid-06c2384d-e96d-4a82-a1bf-b2a5c44521a5">
	<path class="st0" d="M397,577.8l-91.4,52.3l91.8,53L397,577.8L397,577.8L397,577.8z M394,583l0,94.1l-81.4-47L394,583L394,583z"/>
</g>
<g id="uuid-0eac4e3a-204a-4509-97cf-7f8b08f18f03">
	<path class="st0" d="M394,572.6l-91-53v106L394,572.6z M388,572.6l-81.5,47v-94L388,572.6z"/>
</g>
<g id="uuid-f9cf84f4-c22c-4706-a12b-15e5237578d5">
	<path class="st0" d="M403,567.4l91.4-52.3l-91.8-53L403,567.4L403,567.4L403,567.4z M406,562.2l0-94.1l81.4,47L406,562.2L406,562.2
		z"/>
</g>
<g id="uuid-d80597f0-517f-4c5c-a93c-e680f205387d">
	<path class="st0" d="M603,577.8l-0.4,105.3l91.8-53L603,577.8L603,577.8L603,577.8z M606,583l81.5,47.1l-81.4,47L606,583L606,583
		L606,583z"/>
</g>
<g id="uuid-a3d14731-4862-4e22-98fa-6b492b485875">
	<path class="st0" d="M597,577.8l-91.4,52.3l91.8,53L597,577.8z M594,583l0,94.1l-81.4-47L594,583L594,583L594,583z"/>
</g>
<g id="uuid-73b3e605-db84-4e3d-ab1d-48eb69551e0c">
	<path class="st0" d="M594,572.6l-91-53v106L594,572.6z M588,572.6l-81.5,47v-94L588,572.6z"/>
</g>
<g id="uuid-e83485f5-a25d-477b-9d7c-1785a0ce7b07">
	<path class="st0" d="M597,567.4l0.4-105.3l-91.8,53L597,567.4L597,567.4L597,567.4z M594,562.2l-81.5-47.1l81.4-47L594,562.2
		L594,562.2L594,562.2z"/>
</g>
<g id="uuid-e536a44c-cf44-4d06-a481-d851c635d9da">
	<path class="st0" d="M806,572.6l91,53v-106L806,572.6z M812,572.6l81.5-47v94L812,572.6z"/>
</g>
<g id="uuid-5509ab59-89b7-4f3d-bc65-cdab4b9730e0">
	<path class="st0" d="M797,577.8l-91.4,52.3l91.8,53L797,577.8L797,577.8L797,577.8z M794,583l0,94.1l-81.4-47L794,583L794,583
		L794,583z"/>
</g>
<g id="uuid-ff4c17cf-2785-4b81-8af4-bc2669d963bc">
	<path class="st0" d="M106,399.4l91,53v-106L106,399.4z M112,399.4l81.5-47v94L112,399.4z"/>
</g>
<g id="uuid-3579af1c-1ac0-4750-98d3-ff03a93b8fd0">
	<path class="st0" d="M103,404.6l-0.4,105.3l91.8-53C194.4,456.9,103,404.6,103,404.6z M106,409.8l81.4,47.1l-81.4,47L106,409.8
		C106,409.8,106,409.8,106,409.8z"/>
</g>
<g id="uuid-925e4541-c858-4acf-bec9-31a3dffe8d8d">
	<path class="st0" d="M97,404.6L5.6,456.9l91.8,53L97,404.6L97,404.6L97,404.6z M94,409.8l-0.1,94.1l-81.4-47L94,409.8L94,409.8z"/>
</g>
<g id="uuid-ed8d8a60-045d-44ed-9cff-841947f88177">
	<path class="st0" d="M94,399.4l-91-53v106L94,399.4z M88,399.4l-81.5,47v-94L88,399.4z"/>
</g>
<g id="uuid-34c992dd-7f32-49ce-a8df-4a676a667bfe">
	<path class="st0" d="M97,394.2l0.4-105.3l-91.8,53L97,394.2L97,394.2L97,394.2z M94,389l-81.4-47.1l81.4-47L94,389L94,389L94,389z"
		/>
</g>
<g id="uuid-496f0f99-b12c-4305-b381-bbd1dda7a742">
	<path class="st0" d="M103,394.2l91.4-52.3l-91.8-53C102.6,288.9,103,394.2,103,394.2z M106,389l0.1-94.1l81.4,47L106,389L106,389
		L106,389z"/>
</g>
<g id="uuid-bf34888a-359b-4c7d-99b7-46ed3b7f5948">
	<path class="st0" d="M306,399.4l91,53v-106L306,399.4z M312,399.4l81.5-47v94L312,399.4z"/>
</g>
<g id="uuid-849b4cec-6041-4e03-bd8f-49ac55fccdb1">
	<path class="st0" d="M303,404.6l-0.4,105.3l91.8-53L303,404.6L303,404.6L303,404.6z M306,409.8l81.5,47.1l-81.4,47L306,409.8
		L306,409.8L306,409.8z"/>
</g>
<g id="uuid-67d1a686-21ec-42c6-8dd7-e99a60045ae3">
	<path class="st0" d="M297,404.6l-91.4,52.3l91.8,53L297,404.6L297,404.6L297,404.6z M294,409.8l0,94.1l-81.4-47L294,409.8
		L294,409.8z"/>
</g>
<g id="uuid-1b95d4df-cb80-46c6-af73-6064435ada4b">
	<path class="st0" d="M294,399.4l-91-53v106L294,399.4z M288,399.4l-81.5,47v-94L288,399.4z"/>
</g>
<g id="uuid-70931cbe-8816-482f-8444-748dcf12e137">
	<path class="st0" d="M297,394.2l0.4-105.3l-91.8,53L297,394.2z M294,389l-81.4-47.1l81.4-47L294,389L294,389L294,389z"/>
</g>
<g id="uuid-151817eb-be0b-424f-bee5-1d7e68712da3">
	<path class="st0" d="M303,394.2l91.4-52.3l-91.8-53L303,394.2L303,394.2L303,394.2z M306,389l0-94.1l81.4,47L306,389L306,389
		L306,389z"/>
</g>
<g id="uuid-d1d73e4b-c5a2-43ff-adec-7368707f70fa">
	<path class="st0" d="M506,399.4l91,53v-106L506,399.4z M512,399.4l81.5-47v94L512,399.4z"/>
</g>
<g id="uuid-50d35af6-e4ec-40e5-b834-e8283ebfe782">
	<path class="st0" d="M503,404.6l-0.4,105.3l91.8-53L503,404.6L503,404.6L503,404.6z M506,409.8l81.5,47.1l-81.4,47L506,409.8
		L506,409.8L506,409.8z"/>
</g>
<g id="uuid-7b53fa64-2a58-491c-8a08-f34fb7d4c93c">
	<path class="st0" d="M497,404.6l-91.4,52.3l91.8,53L497,404.6L497,404.6L497,404.6z M494,409.8l0,94.1l-81.4-47L494,409.8
		L494,409.8z"/>
</g>
<g id="uuid-8a3c1a1d-11e9-4202-b1af-f00e0810cf27">
	<path class="st0" d="M497,394.2l0.4-105.3l-91.8,53L497,394.2L497,394.2L497,394.2z M494,389l-81.5-47.1l81.4-47L494,389L494,389
		L494,389z"/>
</g>
<g id="uuid-9b6af48b-641a-45a3-993b-4bfe156e1360">
	<path class="st0" d="M503,394.2l91.4-52.3l-91.8-53L503,394.2L503,394.2L503,394.2z M506,389l0-94.1l81.4,47L506,389L506,389
		L506,389z"/>
</g>
<g id="uuid-6be5eab5-20c4-4202-a14f-a055ed9b041a">
	<path class="st0" d="M697,404.6l-91.4,52.3l91.8,53L697,404.6L697,404.6L697,404.6z M694,409.8l0,94.1l-81.4-47L694,409.8
		L694,409.8L694,409.8z"/>
</g>
<g id="uuid-903d474a-ead4-4c7b-9985-57f2706ddaa1">
	<path class="st0" d="M703,394.2l91.4-52.3l-91.8-53L703,394.2L703,394.2L703,394.2z M706,389l0-94.1l81.4,47L706,389L706,389
		L706,389z"/>
</g>
<g id="uuid-c1c765b2-df3e-4582-b651-941ae2a37bc0">
	<path class="st0" d="M6,226.2l91,53v-106L6,226.2z M12,226.2l81.5-47v94L12,226.2z"/>
</g>
<g id="uuid-67ade5f4-523b-4c11-844b-f1247b880423">
	<path class="st0" d="M3,231.4L2.6,336.7l91.8-53L3,231.4z M6,236.6l81.4,47.1l-81.4,47L6,236.6z"/>
</g>
<g id="uuid-4b8cca2b-afe6-4438-a535-36d405950875">
	<path class="st0" d="M3,221l91.4-52.3l-91.8-53L3,221z M6,215.8l0.1-94.1l81.4,47L6,215.8z"/>
</g>
<g id="uuid-8ba9dfc0-644c-4e62-bcd9-f74d3a99e8d0">
	<path class="st0" d="M206,226.2l91,53v-106L206,226.2L206,226.2z M212,226.2l81.5-47v94L212,226.2L212,226.2z"/>
</g>
<g id="uuid-ff413201-dcec-4a3a-a73e-e444e23e2566">
	<path class="st0" d="M203,231.4l-0.4,105.3l91.8-53L203,231.4L203,231.4L203,231.4z M206,236.6l81.5,47.1l-81.4,47L206,236.6
		L206,236.6L206,236.6z"/>
</g>
<g id="uuid-05be3692-151c-401e-875a-d3c91007edef">
	<path class="st0" d="M197,231.4l-91.4,52.3l91.8,53L197,231.4z M194,236.6l-0.1,94.1l-81.4-47L194,236.6L194,236.6L194,236.6z"/>
</g>
<g id="uuid-4e094c9a-fcff-40e2-bda8-cc59ba0f0ccf">
	<path class="st0" d="M194,226.2l-91-53v106L194,226.2L194,226.2z M188,226.2l-81.5,47v-94L188,226.2L188,226.2z"/>
</g>
<g id="uuid-33dff101-cbb8-4b74-a753-a862967f6ede">
	<path class="st0" d="M197,221l0.4-105.3l-91.8,53L197,221z M194,215.8l-81.4-47.1l81.4-47L194,215.8L194,215.8L194,215.8z"/>
</g>
<g id="uuid-ec3077e5-3365-47be-99e6-007b14d287d2">
	<path class="st0" d="M203,221l91.4-52.3l-91.8-53L203,221L203,221L203,221z M206,215.8l0.1-94.1l81.4,47L206,215.8L206,215.8
		L206,215.8z"/>
</g>
<g id="uuid-c11f5ddd-c198-4112-b5b3-10ffc4976a64">
	<path class="st0" d="M406,226.2l91,53v-106L406,226.2L406,226.2z M412,226.2l81.5-47v94L412,226.2L412,226.2z"/>
</g>
<g id="uuid-6daf18dd-48c9-457f-8c9c-c2863d037ed1">
	<path class="st0" d="M394,226.2l-91-53v106L394,226.2L394,226.2z M388,226.2l-81.5,47v-94L388,226.2L388,226.2z"/>
</g>
<g id="uuid-c28c6493-fb45-4d92-8356-6400dfde2e1c">
	<path class="st0" d="M397,221l0.4-105.3l-91.8,53L397,221L397,221L397,221z M394,215.8l-81.5-47.1l81.4-47L394,215.8L394,215.8
		L394,215.8z"/>
</g>
<g id="uuid-0a6265bc-3cbe-4070-9cc7-363a621f9a4e">
	<path class="st0" d="M403,221l91.4-52.3l-91.8-53L403,221L403,221L403,221z M406,215.8l0-94.1l81.4,47L406,215.8L406,215.8z"/>
</g>
<g id="uuid-a731530b-e233-4f02-90b7-c2c2ee5f95db">
	<path class="st0" d="M606,226.2l91,53v-106L606,226.2L606,226.2z M612,226.2l81.5-47v94L612,226.2L612,226.2z"/>
</g>
<g id="uuid-20da5bae-3350-4d01-bacc-9b948779a48a">
	<path class="st0" d="M603,231.4l-0.4,105.3l91.8-53L603,231.4L603,231.4L603,231.4z M606,236.6l81.5,47.1l-81.4,47L606,236.6
		L606,236.6L606,236.6z"/>
</g>
<g id="uuid-6b20a9d4-9f99-4452-9c99-d870711ac3a3">
	<path class="st0" d="M594,226.2l-91-53v106L594,226.2L594,226.2z M588,226.2l-81.5,47v-94L588,226.2L588,226.2z"/>
</g>
<g id="uuid-6bcbb007-8e8e-4e0e-9041-28f79dafec65">
	<path class="st0" d="M597,221l0.4-105.3l-91.8,53L597,221L597,221L597,221z M594,215.8l-81.5-47.1l81.4-47L594,215.8L594,215.8
		L594,215.8z"/>
</g>
<g id="uuid-f2986af1-56b6-43eb-a006-ea6bd2979d34">
	<path class="st0" d="M603,221l91.4-52.3l-91.8-53L603,221L603,221L603,221z M606,215.8l0-94.1l81.4,47L606,215.8L606,215.8
		L606,215.8z"/>
</g>
<g id="uuid-929147e6-9d6a-49be-9639-3939a7cb9e11">
	<path class="st0" d="M806,226.2l91,53v-106L806,226.2L806,226.2z M812,226.2l81.5-47v94L812,226.2L812,226.2z"/>
</g>
<g id="uuid-0276beb1-b381-4695-b316-0f4e681e1be9">
	<path class="st0" d="M803,231.4l-0.4,105.3l91.8-53L803,231.4L803,231.4L803,231.4z M806,236.6l81.5,47.1l-81.4,47L806,236.6
		L806,236.6L806,236.6z"/>
</g>
<g id="uuid-7b0b5e68-b717-449e-a1c6-8ad2ff809680">
	<path class="st0" d="M803,221l91.4-52.3l-91.8-53L803,221L803,221L803,221z M806,215.8l0-94.1l81.4,47L806,215.8L806,215.8
		L806,215.8z"/>
</g>
<g id="uuid-6bc4d43f-aa48-4eb2-870a-b8abfa6c9f27">
	<path class="st0" d="M997,231.4l-91.4,52.3l91.8,53L997,231.4L997,231.4L997,231.4z M994,236.6l0,94.1l-81.4-47L994,236.6
		L994,236.6L994,236.6z"/>
</g>
<g id="uuid-8e16675b-96d0-4805-904e-bc232e11377d">
	<path class="st0" d="M106,53l91,53V0L106,53z M112,53l81.5-47v94L112,53z"/>
</g>
<g id="uuid-302758a5-8760-46ee-bd0f-c40576681b20">
	<path class="st0" d="M103,58.2l-0.4,105.3l91.8-53L103,58.2z M106,63.4l81.4,47.1l-81.4,47L106,63.4C106,63.4,106,63.4,106,63.4z"
		/>
</g>
<g id="uuid-bbd4a892-7acd-45c9-814e-444409f45927">
	<path class="st0" d="M97,58.2L5.6,110.5l91.8,53L97,58.2L97,58.2L97,58.2z M94,63.4l-0.1,94.1l-81.4-47L94,63.4L94,63.4L94,63.4z"
		/>
</g>
<g id="uuid-f43bb3e8-6137-44bf-a13a-21aee8950d5b">
	<path class="st0" d="M94,53L3,0v106L94,53z M88,53L6.5,100V6L88,53z"/>
</g>
<g id="uuid-53bf6ab9-e741-49eb-bb51-c857b59bbcdc">
	<path class="st0" d="M306,53l91,53V0L306,53z M312,53l81.5-47v94L312,53z"/>
</g>
<g id="uuid-14806be2-c604-4681-b415-f71811ba9110">
	<path class="st0" d="M297,58.2l-91.4,52.3l91.8,53L297,58.2L297,58.2L297,58.2z M294,63.4l0,94.1l-81.4-47L294,63.4
		C294,63.4,294,63.4,294,63.4z"/>
</g>
<g id="uuid-e0604dd5-45bd-4d5c-9667-6b56a0f66b45">
	<path class="st0" d="M294,53L203,0v106L294,53z M288,53l-81.5,47V6L288,53z"/>
</g>
<g id="uuid-83ff8ce6-d09d-4d3f-a668-90e76d0c5f40">
	<path class="st0" d="M503,58.2l-0.4,105.3l91.8-53L503,58.2L503,58.2z M506,63.4l81.5,47.1l-81.4,47L506,63.4L506,63.4L506,63.4z"
		/>
</g>
<g id="uuid-3288acd4-2951-4e8d-a90f-6784a28b96ac">
	<path class="st0" d="M494,53L403,0v106L494,53z M488,53l-81.5,47V6L488,53z"/>
</g>
<g id="uuid-c5659614-9948-4a13-896d-9336add4e216">
	<path class="st0" d="M706,53l91,53V0L706,53z M712,53l81.5-47v94L712,53z"/>
</g>
<g id="uuid-138ce375-42d8-4581-ab81-04c70654c902">
	<path class="st0" d="M703,58.2l-0.4,105.3l91.8-53L703,58.2L703,58.2L703,58.2z M706,63.4l81.5,47.1l-81.4,47L706,63.4L706,63.4
		L706,63.4z"/>
</g>
<g id="uuid-aeab8571-65d7-4e5b-854b-05176a51161b">
	<path class="st0" d="M694,53L603,0v106L694,53z M688,53l-81.5,47V6L688,53z"/>
</g>
<g id="uuid-e68a24b4-67b5-4b69-b0f5-e592958ba378">
	<path class="st0" d="M897,58.2l-91.4,52.3l91.8,53L897,58.2L897,58.2L897,58.2z M894,63.4l0,94.1l-81.4-47L894,63.4L894,63.4
		L894,63.4z"/>
</g>
</svg>
