<?xml version="1.0" encoding="UTF-8"?>
<svg id="uuid-15dbd9c2-d659-4e6f-ab5b-2ccc7de3a6aa" xmlns="http://www.w3.org/2000/svg" xmlns:xlink="http://www.w3.org/1999/xlink" viewBox="0 0 1000 1145.23">
  <defs>
    <style>
      .cls-1 {
        fill: none;
      }

      .cls-2 {
        fill: #222226;
      }

      .cls-3 {
        clip-path: url(#clippath);
      }

      .cls-4 {
        fill: none;
      }
    </style>
    <clipPath id="clippath">
      <rect class="cls-4" y="53" width="1000" height="1039.23"/>
    </clipPath>
  </defs>
  <rect class="cls-1" y="53" width="1000" height="1039.23"/>
  <g class="cls-3">
    <g>
      <g id="uuid-bd261a77-a5af-4870-a38e-eba1a1220d27">
        <g id="uuid-8e16675b-96d0-4805-904e-bc232e11377d">
          <path class="cls-2" d="M106,53l91,53V0L106,53Zm6,0L193.5,6V100L112,53Z"/>
        </g>
        <g id="uuid-302758a5-8760-46ee-bd0f-c40576681b20">
          <path class="cls-2" d="M103,58.2l-.4,105.31,91.8-53L103,58.2Zm3,5.2l81.45,47.08-81.41,47-.05-94.08h.01Z"/>
        </g>
        <g id="uuid-bbd4a892-7acd-45c9-814e-444409f45927">
          <path class="cls-2" d="M97,58.2L5.6,110.5l91.8,53-.4-105.31h0Zm-3,5.21l-.05,94.08L12.55,110.47,94,63.39h0Z"/>
        </g>
        <g id="uuid-f43bb3e8-6137-44bf-a13a-21aee8950d5b">
          <path class="cls-2" d="M94,53L3,0V106L94,53Zm-6,0L6.5,100V6L88,53Z"/>
        </g>
        <g id="uuid-53bf6ab9-e741-49eb-bb51-c857b59bbcdc">
          <path class="cls-2" d="M306,53l91,53V0l-91,53Zm6,0L393.5,6V100l-81.5-47Z"/>
        </g>
        <g id="uuid-263e4ba5-56aa-42b8-966e-b728615cbcb1">
          <path class="cls-2" d="M303,58.2l-.4,105.31,91.8-53-91.4-52.31Zm3,5.2l81.45,47.08-81.41,47-.05-94.08h0Z"/>
        </g>
        <g id="uuid-14806be2-c604-4681-b415-f71811ba9110">
          <path class="cls-2" d="M297,58.2l-91.4,52.31,91.8,53-.4-105.31h0Zm-3,5.2l-.05,94.08-81.41-47,81.45-47.08h.01Z"/>
        </g>
        <g id="uuid-e0604dd5-45bd-4d5c-9667-6b56a0f66b45">
          <path class="cls-2" d="M294,53L203,0V106l91-53Zm-6,0l-81.5,47V6l81.5,47Z"/>
        </g>
        <g id="uuid-9a59d3ec-0b73-4921-99c2-08fd3d44d79f">
          <path class="cls-2" d="M506,53l91,53V0l-91,53Zm6,0L593.5,6V100l-81.5-47Z"/>
        </g>
        <g id="uuid-83ff8ce6-d09d-4d3f-a668-90e76d0c5f40">
          <path class="cls-2" d="M503,58.2l-.4,105.31,91.8-53-91.4-52.31Zm3,5.2l81.45,47.08-81.41,47-.05-94.08h0Z"/>
        </g>
        <g id="uuid-e4330dc4-7523-440d-9979-8c538b93a3a9">
          <path class="cls-2" d="M497,58.2l-91.4,52.31,91.8,53-.4-105.31h0Zm-3,5.2l-.05,94.08-81.41-47,81.45-47.08h.01Z"/>
        </g>
        <g id="uuid-3288acd4-2951-4e8d-a90f-6784a28b96ac">
          <path class="cls-2" d="M494,53L403,0V106l91-53Zm-6,0l-81.5,47V6l81.5,47Z"/>
        </g>
        <g id="uuid-c5659614-9948-4a13-896d-9336add4e216">
          <path class="cls-2" d="M706,53l91,53V0l-91,53Zm6,0L793.5,6V100l-81.5-47Z"/>
        </g>
        <g id="uuid-138ce375-42d8-4581-ab81-04c70654c902">
          <path class="cls-2" d="M703,58.2l-.4,105.31,91.8-53-91.4-52.31h0Zm3,5.2l81.45,47.08-81.41,47-.05-94.08h0Z"/>
        </g>
        <g id="uuid-4f440da0-64a3-4068-9000-0e183890d599">
          <path class="cls-2" d="M697,58.2l-91.4,52.31,91.8,53-.4-105.31h0Zm-3,5.2l-.05,94.08-81.41-47,81.45-47.08h0Z"/>
        </g>
        <g id="uuid-aeab8571-65d7-4e5b-854b-05176a51161b">
          <path class="cls-2" d="M694,53L603,0V106l91-53Zm-6,0l-81.5,47V6l81.5,47Z"/>
        </g>
        <g id="uuid-d4c62f45-08b9-4034-8806-3e2c3b561028">
          <path class="cls-2" d="M906,53l91,53V0l-91,53Zm6,0L993.5,6V100l-81.5-47Z"/>
        </g>
        <g id="uuid-3a67dd4e-823c-49a3-85cc-e2e0270adcc9">
          <path class="cls-2" d="M903,58.2l-.4,105.31,91.8-53-91.4-52.31h0Zm3,5.2l81.45,47.08-81.41,47-.05-94.08h0Z"/>
        </g>
        <g id="uuid-e68a24b4-67b5-4b69-b0f5-e592958ba378">
          <path class="cls-2" d="M897,58.2l-91.4,52.31,91.8,53-.4-105.31h0Zm-3,5.2l-.05,94.08-81.41-47,81.45-47.08h0Z"/>
        </g>
        <g id="uuid-3316bfd1-7518-4b4c-b43d-72a8576a7530">
          <path class="cls-2" d="M894,53L803,0V106l91-53Zm-6,0l-81.5,47V6l81.5,47Z"/>
        </g>
      </g>
      <g>
        <g id="uuid-955d3f22-28f0-4ed4-867c-4a4764ecf1f3">
          <g id="uuid-c1c765b2-df3e-4582-b651-941ae2a37bc0">
            <path class="cls-2" d="M6,226.21l91,53v-106L6,226.21Zm6,0l81.5-47v94L12,226.21Z"/>
          </g>
          <g id="uuid-67ade5f4-523b-4c11-844b-f1247b880423">
            <path class="cls-2" d="M3,231.4l-.4,105.31,91.8-53L3,231.4Zm3,5.2l81.45,47.08L6.05,330.68l-.05-94.08Z"/>
          </g>
          <g id="uuid-4b8cca2b-afe6-4438-a535-36d405950875">
            <path class="cls-2" d="M3,221.01l91.4-52.31L2.6,115.7l.4,105.31Zm3-5.2l.05-94.08,81.41,47L6,215.81Z"/>
          </g>
          <g id="uuid-8ba9dfc0-644c-4e62-bcd9-f74d3a99e8d0">
            <path class="cls-2" d="M206,226.21l91,53v-106l-91,53Zm6,0l81.5-47v94l-81.5-47Z"/>
          </g>
          <g id="uuid-ff413201-dcec-4a3a-a73e-e444e23e2566">
            <path class="cls-2" d="M203,231.4l-.4,105.31,91.8-53-91.4-52.31h0Zm3,5.2l81.45,47.08-81.41,47-.05-94.08h0Z"/>
          </g>
          <g id="uuid-05be3692-151c-401e-875a-d3c91007edef">
            <path class="cls-2" d="M197,231.4l-91.4,52.31,91.8,53-.4-105.31Zm-3,5.2l-.05,94.08-81.41-47,81.45-47.08h.01Z"/>
          </g>
          <g id="uuid-4e094c9a-fcff-40e2-bda8-cc59ba0f0ccf">
            <path class="cls-2" d="M194,226.21l-91-53v106l91-53Zm-6,0l-81.5,47v-94l81.5,47Z"/>
          </g>
          <g id="uuid-33dff101-cbb8-4b74-a753-a862967f6ede">
            <path class="cls-2" d="M197,221.01l.4-105.31-91.8,53,91.4,52.31Zm-3-5.2l-81.45-47.08,81.41-47,.05,94.08h-.01Z"/>
          </g>
          <g id="uuid-ec3077e5-3365-47be-99e6-007b14d287d2">
            <path class="cls-2" d="M203,221.01l91.4-52.31-91.8-53,.4,105.31h0Zm3-5.2l.05-94.08,81.41,47-81.45,47.08h-.01Z"/>
          </g>
          <g id="uuid-c11f5ddd-c198-4112-b5b3-10ffc4976a64">
            <path class="cls-2" d="M406,226.21l91,53v-106l-91,53Zm6,0l81.5-47v94l-81.5-47Z"/>
          </g>
          <g id="uuid-ab2ece95-721a-4060-a534-e07c208c9216">
            <path class="cls-2" d="M403,231.4l-.4,105.31,91.8-53-91.4-52.31h0Zm3,5.2l81.45,47.08-81.41,47-.05-94.08h0Z"/>
          </g>
          <g id="uuid-7db22a5e-c8e4-40a8-8dfe-b1ed3164a9ed">
            <path class="cls-2" d="M397,231.4l-91.4,52.31,91.8,53-.4-105.31h0Zm-3,5.2l-.05,94.08-81.41-47,81.45-47.08h.01Z"/>
          </g>
          <g id="uuid-6daf18dd-48c9-457f-8c9c-c2863d037ed1">
            <path class="cls-2" d="M394,226.21l-91-53v106l91-53Zm-6,0l-81.5,47v-94l81.5,47Z"/>
          </g>
          <g id="uuid-c28c6493-fb45-4d92-8356-6400dfde2e1c">
            <path class="cls-2" d="M397,221.01l.4-105.31-91.8,53,91.4,52.31h0Zm-3-5.2l-81.45-47.08,81.41-47,.05,94.08h0Z"/>
          </g>
          <g id="uuid-0a6265bc-3cbe-4070-9cc7-363a621f9a4e">
            <path class="cls-2" d="M403,221.01l91.4-52.31-91.8-53,.4,105.31h0Zm3-5.2l.05-94.08,81.41,47-81.45,47.08h-.01Z"/>
          </g>
          <g id="uuid-a731530b-e233-4f02-90b7-c2c2ee5f95db">
            <path class="cls-2" d="M606,226.21l91,53v-106l-91,53Zm6,0l81.5-47v94l-81.5-47Z"/>
          </g>
          <g id="uuid-20da5bae-3350-4d01-bacc-9b948779a48a">
            <path class="cls-2" d="M603,231.4l-.4,105.31,91.8-53-91.4-52.31h0Zm3,5.2l81.45,47.08-81.41,47-.05-94.08h0Z"/>
          </g>
          <g id="uuid-60fc8c27-9add-40a0-9652-0bfa72c49027">
            <path class="cls-2" d="M597,231.4l-91.4,52.31,91.8,53-.4-105.31Zm-3,5.2l-.05,94.08-81.41-47,81.45-47.08h0Z"/>
          </g>
          <g id="uuid-6b20a9d4-9f99-4452-9c99-d870711ac3a3">
            <path class="cls-2" d="M594,226.21l-91-53v106l91-53Zm-6,0l-81.5,47v-94l81.5,47Z"/>
          </g>
          <g id="uuid-6bcbb007-8e8e-4e0e-9041-28f79dafec65">
            <path class="cls-2" d="M597,221.01l.4-105.31-91.8,53,91.4,52.31h0Zm-3-5.2l-81.45-47.08,81.41-47,.05,94.08h0Z"/>
          </g>
          <g id="uuid-f2986af1-56b6-43eb-a006-ea6bd2979d34">
            <path class="cls-2" d="M603,221.01l91.4-52.31-91.8-53,.4,105.31h0Zm3-5.2l.05-94.08,81.41,47-81.45,47.08h0Z"/>
          </g>
          <g id="uuid-929147e6-9d6a-49be-9639-3939a7cb9e11">
            <path class="cls-2" d="M806,226.21l91,53v-106l-91,53Zm6,0l81.5-47v94l-81.5-47Z"/>
          </g>
          <g id="uuid-0276beb1-b381-4695-b316-0f4e681e1be9">
            <path class="cls-2" d="M803,231.4l-.4,105.31,91.8-53-91.4-52.31h0Zm3,5.2l81.45,47.08-81.41,47-.05-94.08h0Z"/>
          </g>
          <g id="uuid-ef42fe83-a42a-4751-a01d-e3d00164e3e2">
            <path class="cls-2" d="M797,231.4l-91.4,52.31,91.8,53-.4-105.31h0Zm-3,5.2l-.05,94.08-81.41-47,81.45-47.08h0Z"/>
          </g>
          <g id="uuid-e5e638b4-6119-493e-9bc6-b5aec5e56279">
            <path class="cls-2" d="M794,226.21l-91-53v106l91-53Zm-6,0l-81.5,47v-94l81.5,47Z"/>
          </g>
          <g id="uuid-66efa598-87ee-4315-b07a-db87c6891d96">
            <path class="cls-2" d="M797,221.01l.4-105.31-91.8,53,91.4,52.31h0Zm-3-5.2l-81.45-47.08,81.41-47,.05,94.08h0Z"/>
          </g>
          <g id="uuid-7b0b5e68-b717-449e-a1c6-8ad2ff809680">
            <path class="cls-2" d="M803,221.01l91.4-52.31-91.8-53,.4,105.31h0Zm3-5.2l.05-94.08,81.41,47-81.45,47.08h0Z"/>
          </g>
          <g id="uuid-6bc4d43f-aa48-4eb2-870a-b8abfa6c9f27">
            <path class="cls-2" d="M997,231.4l-91.4,52.31,91.8,53-.4-105.31h0Zm-3,5.2l-.05,94.08-81.41-47,81.45-47.08h0Z"/>
          </g>
          <g id="uuid-f6a53af0-bbde-433e-a197-e4ac08147015">
            <path class="cls-2" d="M994,226.21l-91-53v106l91-53Zm-6,0l-81.5,47v-94l81.5,47Z"/>
          </g>
          <g id="uuid-52a92b12-009f-40d1-b03b-19888ec27e29">
            <path class="cls-2" d="M997,221.01l.4-105.31-91.8,53,91.4,52.31h0Zm-3-5.2l-81.45-47.08,81.41-47,.05,94.08h0Z"/>
          </g>
        </g>
        <g>
          <g id="uuid-cfb34847-b344-40f0-8af1-3d5e23abadcb">
            <g id="uuid-ff4c17cf-2785-4b81-8af4-bc2669d963bc">
              <path class="cls-2" d="M106,399.41l91,53v-106l-91,53Zm6,0l81.5-47v94l-81.5-47Z"/>
            </g>
            <g id="uuid-3579af1c-1ac0-4750-98d3-ff03a93b8fd0">
              <path class="cls-2" d="M103,404.61l-.4,105.31,91.8-53s-91.4-52.31-91.4-52.31Zm3,5.2l81.45,47.08-81.41,47-.05-94.08h.01Z"/>
            </g>
            <g id="uuid-925e4541-c858-4acf-bec9-31a3dffe8d8d">
              <path class="cls-2" d="M97,404.61L5.6,456.92l91.8,53-.4-105.31h0Zm-3,5.2l-.05,94.08L12.54,456.89l81.45-47.08h.01Z"/>
            </g>
            <g id="uuid-ed8d8a60-045d-44ed-9cff-841947f88177">
              <path class="cls-2" d="M94,399.41L3,346.41v106l91-53Zm-6,0L6.5,446.41v-94l81.5,47Z"/>
            </g>
            <g id="uuid-34c992dd-7f32-49ce-a8df-4a676a667bfe">
              <path class="cls-2" d="M97,394.21l.4-105.31L5.6,341.91l91.4,52.31h0Zm-3-5.21L12.55,341.93l81.41-47,.05,94.08h-.01Z"/>
            </g>
            <g id="uuid-496f0f99-b12c-4305-b381-bbd1dda7a742">
              <path class="cls-2" d="M103,394.21l91.4-52.31-91.8-53s.4,105.31,.4,105.31Zm3-5.2l.05-94.08,81.41,47-81.45,47.08h-.01Z"/>
            </g>
            <g id="uuid-bf34888a-359b-4c7d-99b7-46ed3b7f5948">
              <path class="cls-2" d="M306,399.41l91,53v-106l-91,53Zm6,0l81.5-47v94l-81.5-47Z"/>
            </g>
            <g id="uuid-849b4cec-6041-4e03-bd8f-49ac55fccdb1">
              <path class="cls-2" d="M303,404.61l-.4,105.31,91.8-53-91.4-52.31h0Zm3,5.2l81.45,47.08-81.41,47-.05-94.08h0Z"/>
            </g>
            <g id="uuid-67d1a686-21ec-42c6-8dd7-e99a60045ae3">
              <path class="cls-2" d="M297,404.61l-91.4,52.31,91.8,53-.4-105.31h0Zm-3,5.2l-.05,94.08-81.41-47,81.45-47.08h.01Z"/>
            </g>
            <g id="uuid-1b95d4df-cb80-46c6-af73-6064435ada4b">
              <path class="cls-2" d="M294,399.41l-91-53v106l91-53Zm-6,0l-81.5,47v-94l81.5,47Z"/>
            </g>
            <g id="uuid-70931cbe-8816-482f-8444-748dcf12e137">
              <path class="cls-2" d="M297,394.21l.4-105.31-91.8,53,91.4,52.31Zm-3-5.2l-81.45-47.08,81.41-47,.05,94.08h-.01Z"/>
            </g>
            <g id="uuid-151817eb-be0b-424f-bee5-1d7e68712da3">
              <path class="cls-2" d="M303,394.21l91.4-52.31-91.8-53,.4,105.31h0Zm3-5.2l.05-94.08,81.41,47-81.45,47.08h-.01Z"/>
            </g>
            <g id="uuid-d1d73e4b-c5a2-43ff-adec-7368707f70fa">
              <path class="cls-2" d="M506,399.41l91,53v-106l-91,53Zm6,0l81.5-47v94l-81.5-47Z"/>
            </g>
            <g id="uuid-50d35af6-e4ec-40e5-b834-e8283ebfe782">
              <path class="cls-2" d="M503,404.61l-.4,105.31,91.8-53-91.4-52.31h0Zm3,5.2l81.45,47.08-81.41,47-.05-94.08h0Z"/>
            </g>
            <g id="uuid-7b53fa64-2a58-491c-8a08-f34fb7d4c93c">
              <path class="cls-2" d="M497,404.61l-91.4,52.31,91.8,53-.4-105.31h0Zm-3,5.2l-.05,94.08-81.41-47,81.45-47.08h.01Z"/>
            </g>
            <g id="uuid-801cd72d-d85e-4572-852c-fae023675d17">
              <path class="cls-2" d="M494,399.41l-91-53v106l91-53Zm-6,0l-81.5,47v-94l81.5,47Z"/>
            </g>
            <g id="uuid-8a3c1a1d-11e9-4202-b1af-f00e0810cf27">
              <path class="cls-2" d="M497,394.21l.4-105.31-91.8,53,91.4,52.31h0Zm-3-5.2l-81.45-47.08,81.41-47,.05,94.08h0Z"/>
            </g>
            <g id="uuid-9b6af48b-641a-45a3-993b-4bfe156e1360">
              <path class="cls-2" d="M503,394.21l91.4-52.31-91.8-53,.4,105.31h0Zm3-5.2l.05-94.08,81.41,47-81.45,47.08h0Z"/>
            </g>
            <g id="uuid-afa9c5f1-2371-4bfb-a3cc-49221fe01510">
              <path class="cls-2" d="M706,399.41l91,53v-106l-91,53Zm6,0l81.5-47v94l-81.5-47Z"/>
            </g>
            <g id="uuid-b2a3aa00-dceb-417c-8b9b-9763cc7447fd">
              <path class="cls-2" d="M703,404.61l-.4,105.31,91.8-53-91.4-52.31h0Zm3,5.2l81.45,47.08-81.41,47-.05-94.08h0Z"/>
            </g>
            <g id="uuid-6be5eab5-20c4-4202-a14f-a055ed9b041a">
              <path class="cls-2" d="M697,404.61l-91.4,52.31,91.8,53-.4-105.31h0Zm-3,5.2l-.05,94.08-81.41-47,81.45-47.08h0Z"/>
            </g>
            <g id="uuid-d0a67875-fe6f-47a2-99e9-2bc15867c2c1">
              <path class="cls-2" d="M694,399.41l-91-53v106l91-53Zm-6,0l-81.5,47v-94l81.5,47Z"/>
            </g>
            <g id="uuid-d2ce17d3-5525-46c5-9ed6-30c2b8391ce4">
              <path class="cls-2" d="M697,394.21l.4-105.31-91.8,53,91.4,52.31h0Zm-3-5.2l-81.45-47.08,81.41-47,.05,94.08h0Z"/>
            </g>
            <g id="uuid-903d474a-ead4-4c7b-9985-57f2706ddaa1">
              <path class="cls-2" d="M703,394.21l91.4-52.31-91.8-53,.4,105.31h0Zm3-5.2l.05-94.08,81.41,47-81.45,47.08h0Z"/>
            </g>
            <g id="uuid-eba70fa2-e137-4123-a690-97e0c52d45e6">
              <path class="cls-2" d="M906,399.41l91,53v-106l-91,53Zm6,0l81.5-47v94l-81.5-47Z"/>
            </g>
            <g id="uuid-214cafee-01b8-4c3a-b4d5-4f892041e941">
              <path class="cls-2" d="M903,404.61l-.4,105.31,91.8-53-91.4-52.31h0Zm3,5.2l81.45,47.08-81.41,47-.05-94.08h0Z"/>
            </g>
            <g id="uuid-3bf1c315-cbd6-41fe-ac32-b08d7438df9c">
              <path class="cls-2" d="M897,404.61l-91.4,52.31,91.8,53-.4-105.31h0Zm-3,5.2l-.05,94.08-81.41-47,81.45-47.08h0Z"/>
            </g>
            <g id="uuid-c1462acd-148f-4ca7-a1b9-5dc88528f558">
              <path class="cls-2" d="M894,399.41l-91-53v106l91-53Zm-6,0l-81.5,47v-94l81.5,47Z"/>
            </g>
            <g id="uuid-f8020d8e-c3d2-4fa2-8388-2924b420244b">
              <path class="cls-2" d="M897,394.21l.4-105.31-91.8,53,91.4,52.31h0Zm-3-5.2l-81.45-47.08,81.41-47,.05,94.08h0Z"/>
            </g>
            <g id="uuid-f31aa4ea-ed9e-4b3d-a933-be2fc23acd82">
              <path class="cls-2" d="M903,394.21l91.4-52.31-91.8-53,.4,105.31h0Zm3-5.2l.05-94.08,81.41,47-81.45,47.08h0Z"/>
            </g>
          </g>
          <g>
            <g id="uuid-7a891bc3-3977-4e7d-bf79-519861cfdaa6">
              <g id="uuid-b19ce922-b01b-4017-b0c6-c96b626d92f7">
                <path class="cls-2" d="M6,572.62l91,53v-106L6,572.62Zm6,0l81.5-47v94l-81.5-47Z"/>
              </g>
              <g id="uuid-2d81f3f0-cf2b-47dc-bbf7-1a375451a0b8">
                <path class="cls-2" d="M3,577.81l-.4,105.31,91.8-53L3,577.81Zm3,5.2l81.45,47.08L6.04,677.09l-.05-94.08h.01Z"/>
              </g>
              <g id="uuid-6f108d90-830e-4726-ac7e-8c9bb6fba453">
                <path class="cls-2" d="M3,567.42l91.4-52.31L2.6,462.11l.4,105.31Zm3-5.2l.05-94.08,81.41,47L6,562.22h0Z"/>
              </g>
              <g id="uuid-932121a3-089f-418d-a8a5-6428da9703bf">
                <path class="cls-2" d="M206,572.62l91,53v-106l-91,53Zm6,0l81.5-47v94l-81.5-47Z"/>
              </g>
              <g id="uuid-49d3781b-8b53-4e0a-a486-c9b0e0180187">
                <path class="cls-2" d="M203,577.81l-.4,105.31,91.8-53-91.4-52.31h0Zm3,5.2l81.45,47.08-81.41,47-.05-94.08h0Z"/>
              </g>
              <g id="uuid-b604b7da-553b-400d-b43f-a224b62c5a8d">
                <path class="cls-2" d="M197,577.81l-91.4,52.31,91.8,53-.4-105.31Zm-3,5.2l-.05,94.08-81.41-47,81.45-47.08h.01Z"/>
              </g>
              <g id="uuid-53dad97c-b259-4397-af45-92bcebb9818b">
                <path class="cls-2" d="M194,572.62l-91-53v106l91-53Zm-6,0l-81.5,47v-94l81.5,47Z"/>
              </g>
              <g id="uuid-05fad7f1-347b-4fb6-95ac-2833393e5c1e">
                <path class="cls-2" d="M197,567.42l.4-105.31-91.8,53,91.4,52.31Zm-3-5.2l-81.45-47.08,81.41-47,.05,94.08h-.01Z"/>
              </g>
              <g id="uuid-7456b516-0882-457e-b4e9-8b3487c9ab5c">
                <path class="cls-2" d="M203,567.42l91.4-52.31-91.8-53,.4,105.31h0Zm3-5.2l.05-94.08,81.41,47-81.45,47.08h-.01Z"/>
              </g>
              <g id="uuid-c0d44057-a565-4d30-a158-74dc11a6195a">
                <path class="cls-2" d="M406,572.62l91,53v-106l-91,53Zm6,0l81.5-47v94l-81.5-47Z"/>
              </g>
              <g id="uuid-70f810b2-91f0-4b5e-8cba-83cfce2dd917">
                <path class="cls-2" d="M403,577.81l-.4,105.31,91.8-53-91.4-52.31h0Zm3,5.2l81.45,47.08-81.41,47-.05-94.08h0Z"/>
              </g>
              <g id="uuid-06c2384d-e96d-4a82-a1bf-b2a5c44521a5">
                <path class="cls-2" d="M397,577.81l-91.4,52.31,91.8,53-.4-105.31h0Zm-3,5.2l-.05,94.08-81.41-47,81.45-47.08h.01Z"/>
              </g>
              <g id="uuid-0eac4e3a-204a-4509-97cf-7f8b08f18f03">
                <path class="cls-2" d="M394,572.62l-91-53v106l91-53Zm-6,0l-81.5,47v-94l81.5,47Z"/>
              </g>
              <g id="uuid-78bddd29-46a0-407c-afc0-95761e38f335">
                <path class="cls-2" d="M397,567.42l.4-105.31-91.8,53,91.4,52.31h0Zm-3-5.2l-81.45-47.08,81.41-47,.05,94.08h0Z"/>
              </g>
              <g id="uuid-f9cf84f4-c22c-4706-a12b-15e5237578d5">
                <path class="cls-2" d="M403,567.42l91.4-52.31-91.8-53,.4,105.31h0Zm3-5.2l.05-94.08,81.41,47-81.45,47.08h-.01Z"/>
              </g>
              <g id="uuid-96e33f4e-8c9d-436d-b4fe-51c5033ea88b">
                <path class="cls-2" d="M606,572.62l91,53v-106l-91,53Zm6,0l81.5-47v94l-81.5-47Z"/>
              </g>
              <g id="uuid-d80597f0-517f-4c5c-a93c-e680f205387d">
                <path class="cls-2" d="M603,577.81l-.4,105.31,91.8-53-91.4-52.31h0Zm3,5.2l81.45,47.08-81.41,47-.05-94.08h0Z"/>
              </g>
              <g id="uuid-a3d14731-4862-4e22-98fa-6b492b485875">
                <path class="cls-2" d="M597,577.81l-91.4,52.31,91.8,53-.4-105.31Zm-3,5.2l-.05,94.08-81.41-47,81.45-47.08h0Z"/>
              </g>
              <g id="uuid-73b3e605-db84-4e3d-ab1d-48eb69551e0c">
                <path class="cls-2" d="M594,572.62l-91-53v106l91-53Zm-6,0l-81.5,47v-94l81.5,47Z"/>
              </g>
              <g id="uuid-e83485f5-a25d-477b-9d7c-1785a0ce7b07">
                <path class="cls-2" d="M597,567.42l.4-105.31-91.8,53,91.4,52.31h0Zm-3-5.2l-81.45-47.08,81.41-47,.05,94.08h0Z"/>
              </g>
              <g id="uuid-8836e94c-9812-4996-9be5-8ad849d413b3">
                <path class="cls-2" d="M603,567.42l91.4-52.31-91.8-53,.4,105.31h0Zm3-5.2l.05-94.08,81.41,47-81.45,47.08h0Z"/>
              </g>
              <g id="uuid-e536a44c-cf44-4d06-a481-d851c635d9da">
                <path class="cls-2" d="M806,572.62l91,53v-106l-91,53Zm6,0l81.5-47v94l-81.5-47Z"/>
              </g>
              <g id="uuid-30996246-686d-4a44-ba1f-0f5abb06e9cb">
                <path class="cls-2" d="M803,577.81l-.4,105.31,91.8-53-91.4-52.31h0Zm3,5.2l81.45,47.08-81.41,47-.05-94.08h0Z"/>
              </g>
              <g id="uuid-5509ab59-89b7-4f3d-bc65-cdab4b9730e0">
                <path class="cls-2" d="M797,577.81l-91.4,52.31,91.8,53-.4-105.31h0Zm-3,5.2l-.05,94.08-81.41-47,81.45-47.08h0Z"/>
              </g>
              <g id="uuid-e6e7a4a0-8e5a-4016-8b3d-eb49e6825d5c">
                <path class="cls-2" d="M794,572.62l-91-53v106l91-53Zm-6,0l-81.5,47v-94l81.5,47Z"/>
              </g>
              <g id="uuid-24ee82ac-2d6c-41ac-bcd9-6087722d5bf1">
                <path class="cls-2" d="M797,567.42l.4-105.31-91.8,53,91.4,52.31h0Zm-3-5.2l-81.45-47.08,81.41-47,.05,94.08h0Z"/>
              </g>
              <g id="uuid-484df970-1f28-411c-a78e-d112760cabde">
                <path class="cls-2" d="M803,567.42l91.4-52.31-91.8-53,.4,105.31h0Zm3-5.2l.05-94.08,81.41,47-81.45,47.08h0Z"/>
              </g>
              <g id="uuid-93e70377-085e-4436-b8b7-ef22fbb8c56c">
                <path class="cls-2" d="M997,577.81l-91.4,52.31,91.8,53-.4-105.31h0Zm-3,5.2l-.05,94.08-81.41-47,81.45-47.08h0Z"/>
              </g>
              <g id="uuid-9fbbe73e-a95d-45fc-8159-38a989233678">
                <path class="cls-2" d="M994,572.62l-91-53v106l91-53Zm-6,0l-81.5,47v-94l81.5,47Z"/>
              </g>
              <g id="uuid-b2cfac6d-169f-4751-83a7-cd98781b2de5">
                <path class="cls-2" d="M997,567.42l.4-105.31-91.8,53,91.4,52.31h0Zm-3-5.2l-81.45-47.08,81.41-47,.05,94.08h0Z"/>
              </g>
            </g>
            <g>
              <g id="uuid-36e5803d-72b0-4aee-bfbc-640853c4dfd7">
                <g id="uuid-87d3b8b9-52a8-4bfb-92d4-1b80804273f8">
                  <path class="cls-2" d="M106,745.82l91,53v-106l-91,53Zm6,0l81.5-47v94l-81.5-47Z"/>
                </g>
                <g id="uuid-def868dd-a6b0-4ad8-85a1-eeacddfecd7e">
                  <path class="cls-2" d="M103,751.02l-.4,105.31,91.8-53s-91.4-52.31-91.4-52.31Zm3,5.2l81.45,47.08-81.41,47-.05-94.08h.01Z"/>
                </g>
                <g id="uuid-e282f05e-cf99-47e1-97d1-64c71ca7a171">
                  <path class="cls-2" d="M97,751.02L5.6,803.33l91.8,53-.4-105.31Zm-3,5.2l-.05,94.08-81.41-47,81.45-47.08h.01Z"/>
                </g>
                <g id="uuid-df55953b-6860-4e2a-83d8-41b6c1e0aff4">
                  <path class="cls-2" d="M94,745.82L3,692.82v106l91-53Zm-6,0L6.5,792.82v-94l81.5,47Z"/>
                </g>
                <g id="uuid-e13587cf-52b1-4cf1-abe6-27b8a37cf0c6">
                  <path class="cls-2" d="M97,740.62l.4-105.31L5.6,688.31l91.4,52.31Zm-3-5.2l-81.45-47.08,81.41-47,.05,94.08h-.01Z"/>
                </g>
                <g id="uuid-4e13b9ce-e0a7-4ba0-b66e-3ece9d4f7bfc">
                  <path class="cls-2" d="M103,740.62l91.4-52.31-91.8-53s.4,105.31,.4,105.31Zm3-5.2l.05-94.08,81.41,47-81.45,47.08h-.01Z"/>
                </g>
                <g id="uuid-001068d3-6144-4c37-9f76-8dc4e9c6d130">
                  <path class="cls-2" d="M306,745.82l91,53v-106l-91,53Zm6,0l81.5-47v94l-81.5-47Z"/>
                </g>
                <g id="uuid-95f0d73c-da8f-4319-9a77-e2506e595100">
                  <path class="cls-2" d="M303,751.02l-.4,105.31,91.8-53-91.4-52.31h0Zm3,5.2l81.45,47.08-81.41,47-.05-94.08h0Z"/>
                </g>
                <g id="uuid-f137cbbb-71b7-4769-a438-132168adb469">
                  <path class="cls-2" d="M297,751.02l-91.4,52.31,91.8,53-.4-105.31h0Zm-3,5.2l-.05,94.08-81.41-47,81.45-47.08h.01Z"/>
                </g>
                <g id="uuid-8471bf13-caa1-4a04-ab5a-ee175caca7e1">
                  <path class="cls-2" d="M294,745.82l-91-53v106l91-53Zm-6,0l-81.5,47v-94l81.5,47Z"/>
                </g>
                <g id="uuid-fc3d917c-bcb2-4bbb-b358-e749534155a6">
                  <path class="cls-2" d="M297,740.62l.4-105.31-91.8,53,91.4,52.31Zm-3-5.2l-81.45-47.08,81.41-47,.05,94.08h-.01Z"/>
                </g>
                <g id="uuid-6e808750-3e71-4541-a2cd-6f3b30cc7295">
                  <path class="cls-2" d="M303,740.62l91.4-52.31-91.8-53,.4,105.31h0Zm3-5.2l.05-94.08,81.41,47-81.45,47.08h-.01Z"/>
                </g>
                <g id="uuid-53449542-e881-43ea-af59-227299674bbb">
                  <path class="cls-2" d="M506,745.82l91,53v-106l-91,53Zm6,0l81.5-47v94l-81.5-47Z"/>
                </g>
                <g id="uuid-b8ec8341-69f7-458c-8658-cad4f1b5883b">
                  <path class="cls-2" d="M503,751.02l-.4,105.31,91.8-53-91.4-52.31h0Zm3,5.2l81.45,47.08-81.41,47-.05-94.08h0Z"/>
                </g>
                <g id="uuid-6339ed56-5958-47db-aa23-3977db72755a">
                  <path class="cls-2" d="M497,751.02l-91.4,52.31,91.8,53-.4-105.31h0Zm-3,5.2l-.05,94.08-81.41-47,81.45-47.08h.01Z"/>
                </g>
                <g id="uuid-86039867-84b6-41ef-be2b-99eeec0a634b">
                  <path class="cls-2" d="M494,745.82l-91-53v106l91-53Zm-6,0l-81.5,47v-94l81.5,47Z"/>
                </g>
                <g id="uuid-1650d732-3baf-4722-b58e-76ee5f959bbe">
                  <path class="cls-2" d="M497,740.62l.4-105.31-91.8,53,91.4,52.31h0Zm-3-5.2l-81.45-47.08,81.41-47,.05,94.08h0Z"/>
                </g>
                <g id="uuid-e6d40303-c335-4837-8e59-3cad904d97e7">
                  <path class="cls-2" d="M503,740.62l91.4-52.31-91.8-53,.4,105.31h0Zm3-5.2l.05-94.08,81.41,47-81.45,47.08h0Z"/>
                </g>
                <g id="uuid-e660b102-6100-4856-be75-3af162e8a757">
                  <path class="cls-2" d="M706,745.82l91,53v-106l-91,53Zm6,0l81.5-47v94l-81.5-47Z"/>
                </g>
                <g id="uuid-05cf4653-8661-482f-9a80-482bead10b8b">
                  <path class="cls-2" d="M703,751.02l-.4,105.31,91.8-53-91.4-52.31h0Zm3,5.2l81.45,47.08-81.41,47-.05-94.08h0Z"/>
                </g>
                <g id="uuid-b87a256c-7d81-45e4-8615-ff97c26b14ce">
                  <path class="cls-2" d="M697,751.02l-91.4,52.31,91.8,53-.4-105.31h0Zm-3,5.2l-.05,94.08-81.41-47,81.45-47.08h0Z"/>
                </g>
                <g id="uuid-852e744e-0da3-4cfa-91fb-cf766f05edbf">
                  <path class="cls-2" d="M694,745.82l-91-53v106l91-53Zm-6,0l-81.5,47v-94l81.5,47Z"/>
                </g>
                <g id="uuid-72ebf764-26af-45fc-b9b4-f27b47a127a8">
                  <path class="cls-2" d="M697,740.62l.4-105.31-91.8,53,91.4,52.31h0Zm-3-5.2l-81.45-47.08,81.41-47,.05,94.08h0Z"/>
                </g>
                <g id="uuid-490987c7-9280-434e-8b92-915b10151a53">
                  <path class="cls-2" d="M703,740.62l91.4-52.31-91.8-53,.4,105.31h0Zm3-5.2l.05-94.08,81.41,47-81.45,47.08h0Z"/>
                </g>
                <g id="uuid-f407d421-33d8-4084-bdbf-b0686881f6a9">
                  <path class="cls-2" d="M906,745.82l91,53v-106l-91,53Zm6,0l81.5-47v94l-81.5-47Z"/>
                </g>
                <g id="uuid-df0fa16b-1e33-4d9c-98b3-c06495c5210c">
                  <path class="cls-2" d="M903,751.02l-.4,105.31,91.8-53-91.4-52.31h0Zm3,5.2l81.45,47.08-81.41,47-.05-94.08h0Z"/>
                </g>
                <g id="uuid-74f1e165-6bc1-4a93-ab21-da1abd4b6a6d">
                  <path class="cls-2" d="M897,751.02l-91.4,52.31,91.8,53-.4-105.31h0Zm-3,5.2l-.05,94.08-81.41-47,81.45-47.08h0Z"/>
                </g>
                <g id="uuid-6efa9822-4060-4e7f-8759-7121f12542fd">
                  <path class="cls-2" d="M894,745.82l-91-53v106l91-53Zm-6,0l-81.5,47v-94l81.5,47Z"/>
                </g>
                <g id="uuid-27806678-7431-4447-af7a-0386cb2de505">
                  <path class="cls-2" d="M897,740.62l.4-105.31-91.8,53,91.4,52.31h0Zm-3-5.2l-81.45-47.08,81.41-47,.05,94.08h0Z"/>
                </g>
                <g id="uuid-169128ec-b04c-43cf-a5b7-e3fe38e53782">
                  <path class="cls-2" d="M903,740.62l91.4-52.31-91.8-53,.4,105.31h0Zm3-5.2l.05-94.08,81.41,47-81.45,47.08h0Z"/>
                </g>
              </g>
              <g>
                <g id="uuid-d6c6182c-d085-4ae8-903e-5779cb67637b">
                  <g id="uuid-ff88d7c4-748b-47d1-9f0a-6ee2956262ea">
                    <path class="cls-2" d="M6,919.03l91,53v-106L6,919.03Zm6,0l81.5-47v94l-81.5-47Z"/>
                  </g>
                  <g id="uuid-e78911a9-8bfa-4112-ae8c-759595d1ab80">
                    <path class="cls-2" d="M3,924.22l-.4,105.31,91.8-53L3,924.22Zm3,5.2l81.45,47.08L6.04,1023.5l-.05-94.08h.01Z"/>
                  </g>
                  <g id="uuid-4bbbd0c3-ca78-441d-9b7a-7ff69535faf4">
                    <path class="cls-2" d="M3,913.83l91.4-52.31L2.6,808.52l.4,105.31Zm3-5.2l.05-94.08,81.41,47L6.01,908.63h-.01Z"/>
                  </g>
                  <g id="uuid-750eadba-8325-4c14-b603-db1ca7aab96f">
                    <path class="cls-2" d="M206,919.03l91,53v-106l-91,53Zm6,0l81.5-47v94l-81.5-47Z"/>
                  </g>
                  <g id="uuid-a0cb36f5-f4f6-48f8-b184-6cf9d921b845">
                    <path class="cls-2" d="M203,924.22l-.4,105.31,91.8-53-91.4-52.31h0Zm3,5.2l81.45,47.08-81.41,47-.05-94.08h0Z"/>
                  </g>
                  <g id="uuid-c9e2f589-2c33-4dc3-b83a-a593ca7ea9bc">
                    <path class="cls-2" d="M197,924.22l-91.4,52.31,91.8,53-.4-105.31Zm-3,5.2l-.05,94.08-81.41-47,81.45-47.08h.01Z"/>
                  </g>
                  <g id="uuid-847afc11-4164-4973-adae-42620cf4b04b">
                    <path class="cls-2" d="M194,919.03l-91-53v106l91-53Zm-6,0l-81.5,47v-94l81.5,47Z"/>
                  </g>
                  <g id="uuid-60023538-4502-476b-98d4-2a0ef15efd26">
                    <path class="cls-2" d="M197,913.83l.4-105.31-91.8,53,91.4,52.31Zm-3-5.2l-81.45-47.08,81.41-47,.05,94.08h-.01Z"/>
                  </g>
                  <g id="uuid-c4e56fb9-42db-4596-b3e4-b39a16f11ff4">
                    <path class="cls-2" d="M203,913.83l91.4-52.31-91.8-53,.4,105.31h0Zm3-5.2l.05-94.08,81.41,47-81.45,47.08h-.01Z"/>
                  </g>
                  <g id="uuid-fd8875ba-3b8c-4878-8fc9-420aaa51b474">
                    <path class="cls-2" d="M406,919.03l91,53v-106l-91,53Zm6,0l81.5-47v94l-81.5-47Z"/>
                  </g>
                  <g id="uuid-76c16786-7493-42ca-aed6-85d98809c367">
                    <path class="cls-2" d="M403,924.22l-.4,105.31,91.8-53-91.4-52.31h0Zm3,5.2l81.45,47.08-81.41,47-.05-94.08h0Z"/>
                  </g>
                  <g id="uuid-a25639d6-fdeb-4921-bd4b-a8eadd1e45ad">
                    <path class="cls-2" d="M397,924.22l-91.4,52.31,91.8,53-.4-105.31h0Zm-3,5.2l-.05,94.08-81.41-47,81.45-47.08h.01Z"/>
                  </g>
                  <g id="uuid-ab5279b9-e91f-467d-be2b-625e32b789da">
                    <path class="cls-2" d="M394,919.03l-91-53v106l91-53Zm-6,0l-81.5,47v-94l81.5,47Z"/>
                  </g>
                  <g id="uuid-e03eb052-234f-45f5-b95d-5bfc703d13e4">
                    <path class="cls-2" d="M397,913.83l.4-105.31-91.8,53,91.4,52.31h0Zm-3-5.2l-81.45-47.08,81.41-47,.05,94.08h0Z"/>
                  </g>
                  <g id="uuid-18fbed50-05a2-4b6f-a28c-c96f6ae81283">
                    <path class="cls-2" d="M403,913.83l91.4-52.31-91.8-53,.4,105.31h0Zm3-5.2l.05-94.08,81.41,47-81.45,47.08h-.01Z"/>
                  </g>
                  <g id="uuid-ecfa3cb6-6a90-4371-98c5-2bee7b5b33c6">
                    <path class="cls-2" d="M606,919.03l91,53v-106l-91,53Zm6,0l81.5-47v94l-81.5-47Z"/>
                  </g>
                  <g id="uuid-e2057bab-08c4-487c-8540-99c7db449c01">
                    <path class="cls-2" d="M603,924.22l-.4,105.31,91.8-53-91.4-52.31h0Zm3,5.2l81.45,47.08-81.41,47-.05-94.08h0Z"/>
                  </g>
                  <g id="uuid-3236838a-5bb6-4358-ad27-ab436b727603">
                    <path class="cls-2" d="M597,924.22l-91.4,52.31,91.8,53-.4-105.31Zm-3,5.2l-.05,94.08-81.41-47,81.45-47.08h0Z"/>
                  </g>
                  <g id="uuid-9d5f3178-6715-419b-8ab7-05bcc47b5b50">
                    <path class="cls-2" d="M594,919.03l-91-53v106l91-53Zm-6,0l-81.5,47v-94l81.5,47Z"/>
                  </g>
                  <g id="uuid-a75ee7c8-f7ea-4352-a49d-442b8014d156">
                    <path class="cls-2" d="M597,913.83l.4-105.31-91.8,53,91.4,52.31h0Zm-3-5.2l-81.45-47.08,81.41-47,.05,94.08h0Z"/>
                  </g>
                  <g id="uuid-648a2d87-aae8-42f6-8ce6-0ace0ad16e6d">
                    <path class="cls-2" d="M603,913.83l91.4-52.31-91.8-53,.4,105.31h0Zm3-5.2l.05-94.08,81.41,47-81.45,47.08h0Z"/>
                  </g>
                  <g id="uuid-ff51bb42-5bdc-4417-8735-102a7b33e622">
                    <path class="cls-2" d="M806,919.03l91,53v-106l-91,53Zm6,0l81.5-47v94l-81.5-47Z"/>
                  </g>
                  <g id="uuid-2c4eb696-0779-4aee-9f3e-622a1e506801">
                    <path class="cls-2" d="M803,924.22l-.4,105.31,91.8-53-91.4-52.31h0Zm3,5.2l81.45,47.08-81.41,47-.05-94.08h0Z"/>
                  </g>
                  <g id="uuid-4e06989d-6aee-4877-8f67-cd0ca4e48004">
                    <path class="cls-2" d="M797,924.22l-91.4,52.31,91.8,53-.4-105.31h0Zm-3,5.2l-.05,94.08-81.41-47,81.45-47.08h0Z"/>
                  </g>
                  <g id="uuid-b0a35f8e-dc9d-4b34-8321-039062925ca6">
                    <path class="cls-2" d="M794,919.03l-91-53v106l91-53Zm-6,0l-81.5,47v-94l81.5,47Z"/>
                  </g>
                  <g id="uuid-88d6f3bf-48bb-48a2-aea1-114d01b2f07e">
                    <path class="cls-2" d="M797,913.83l.4-105.31-91.8,53,91.4,52.31h0Zm-3-5.2l-81.45-47.08,81.41-47,.05,94.08h0Z"/>
                  </g>
                  <g id="uuid-d7ded044-7bec-489b-8b97-74495554fee9">
                    <path class="cls-2" d="M803,913.83l91.4-52.31-91.8-53,.4,105.31h0Zm3-5.2l.05-94.08,81.41,47-81.45,47.08h0Z"/>
                  </g>
                  <g id="uuid-c9197d89-9a2b-46f5-8d42-9d3c69efcf5e">
                    <path class="cls-2" d="M997,924.22l-91.4,52.31,91.8,53-.4-105.31h0Zm-3,5.2l-.05,94.08-81.41-47,81.45-47.08h0Z"/>
                  </g>
                  <g id="uuid-6e7c52e1-d61e-4a25-b895-b96465dc894e">
                    <path class="cls-2" d="M994,919.03l-91-53v106l91-53Zm-6,0l-81.5,47v-94l81.5,47Z"/>
                  </g>
                  <g id="uuid-19f69afe-393d-4c97-a6bd-62ca994e9659">
                    <path class="cls-2" d="M997,913.83l.4-105.31-91.8,53,91.4,52.31h0Zm-3-5.2l-81.45-47.08,81.41-47,.05,94.08h0Z"/>
                  </g>
                </g>
                <g id="uuid-7ae238b9-8927-401b-8399-2573f62d09d7">
                  <g id="uuid-3d4df8b4-55a6-4876-9342-467faea2c3bb">
                    <g id="uuid-d85cbbc8-f6b2-4de1-9a22-3663509493d7">
                      <path class="cls-2" d="M106,1092.23l91,53v-106l-91,53Zm6,0l81.5-47v94l-81.5-47Z"/>
                    </g>
                    <g id="uuid-a73b0606-5c9f-40e3-bf1b-992ab4e55694">
                      <path class="cls-2" d="M94,1092.23L3,1039.23v106l91-53Zm-6,0l-81.5,47v-94l81.5,47Z"/>
                    </g>
                    <g id="uuid-cee88536-8905-49dd-bc65-65b0c8df457d">
                      <path class="cls-2" d="M97,1087.03l.4-105.31-91.8,53,91.4,52.31Zm-3-5.2l-81.45-47.08,81.41-47,.05,94.08h-.01Z"/>
                    </g>
                    <g id="uuid-6dc51f02-881c-445f-b653-9e57729e96c2">
                      <path class="cls-2" d="M103,1087.03l91.4-52.31-91.8-53s.4,105.31,.4,105.31Zm3-5.2l.05-94.08,81.41,47-81.45,47.08h-.01Z"/>
                    </g>
                    <g id="uuid-ec5b4a46-617a-4172-9b46-81fb89c64013">
                      <path class="cls-2" d="M306,1092.23l91,53v-106l-91,53Zm6,0l81.5-47v94l-81.5-47Z"/>
                    </g>
                    <g id="uuid-6b36e000-44be-4c87-8ce9-cf29bf7ffb4c">
                      <path class="cls-2" d="M294,1092.23l-91-53v106l91-53Zm-6,0l-81.5,47v-94l81.5,47Z"/>
                    </g>
                    <g id="uuid-06720082-3f68-40ea-94ff-b09c2f9e7a28">
                      <path class="cls-2" d="M297,1087.03l.4-105.31-91.8,53,91.4,52.31Zm-3-5.2l-81.45-47.08,81.41-47,.05,94.08h-.01Z"/>
                    </g>
                    <g id="uuid-3fd0fd3c-4b85-43e4-a79c-c04662302204">
                      <path class="cls-2" d="M303,1087.03l91.4-52.31-91.8-53,.4,105.31h0Zm3-5.2l.05-94.08,81.41,47-81.45,47.08h-.01Z"/>
                    </g>
                    <g id="uuid-679e53cf-8e33-472f-8d33-ce4e99120594">
                      <path class="cls-2" d="M506,1092.23l91,53v-106l-91,53Zm6,0l81.5-47v94l-81.5-47Z"/>
                    </g>
                    <g id="uuid-915a345f-7fa1-4fb6-9025-0745b89cb175">
                      <path class="cls-2" d="M494,1092.23l-91-53v106l91-53Zm-6,0l-81.5,47v-94l81.5,47Z"/>
                    </g>
                    <g id="uuid-135acc29-c912-4bdd-9e1f-a4a8bb15c2df">
                      <path class="cls-2" d="M497,1087.03l.4-105.31-91.8,53,91.4,52.31h0Zm-3-5.2l-81.45-47.08,81.41-47,.05,94.08h0Z"/>
                    </g>
                    <g id="uuid-206352f0-bf4a-45ae-8c59-fd2a9f8c7260">
                      <path class="cls-2" d="M503,1087.03l91.4-52.31-91.8-53,.4,105.31h0Zm3-5.2l.05-94.08,81.41,47-81.45,47.08h0Z"/>
                    </g>
                    <g id="uuid-3516df46-ae87-4a89-98d2-90b066394588">
                      <path class="cls-2" d="M706,1092.23l91,53v-106l-91,53Zm6,0l81.5-47v94l-81.5-47Z"/>
                    </g>
                    <g id="uuid-1d22a24e-1205-4e7a-a4e9-4356fcc85ca7">
                      <path class="cls-2" d="M694,1092.23l-91-53v106l91-53Zm-6,0l-81.5,47v-94l81.5,47Z"/>
                    </g>
                    <g id="uuid-c0fca104-ac5f-4430-8fd9-660839d43c4f">
                      <path class="cls-2" d="M697,1087.03l.4-105.31-91.8,53,91.4,52.31h0Zm-3-5.2l-81.45-47.08,81.41-47,.05,94.08h0Z"/>
                    </g>
                    <g id="uuid-96c878ef-5fe8-4a86-9e89-5a7c5528cd8e">
                      <path class="cls-2" d="M703,1087.03l91.4-52.31-91.8-53,.4,105.31h0Zm3-5.2l.05-94.08,81.41,47-81.45,47.08h0Z"/>
                    </g>
                    <g id="uuid-6d1d43c6-5df2-45ab-8db0-46cc46976bfd">
                      <path class="cls-2" d="M906,1092.23l91,53v-106l-91,53Zm6,0l81.5-47v94l-81.5-47Z"/>
                    </g>
                    <g id="uuid-a83d728a-3f42-452b-872a-22e6a84b6924">
                      <path class="cls-2" d="M894,1092.23l-91-53v106l91-53Zm-6,0l-81.5,47v-94l81.5,47Z"/>
                    </g>
                    <g id="uuid-ab606796-61e3-46be-9650-9eba29096b83">
                      <path class="cls-2" d="M897,1087.03l.4-105.31-91.8,53,91.4,52.31h0Zm-3-5.2l-81.45-47.08,81.41-47,.05,94.08h0Z"/>
                    </g>
                    <g id="uuid-ca1ae49f-9ae4-4c6a-b76b-7d069194b7ab">
                      <path class="cls-2" d="M903,1087.03l91.4-52.31-91.8-53,.4,105.31h0Zm3-5.2l.05-94.08,81.41,47-81.45,47.08h0Z"/>
                    </g>
                  </g>
                </g>
              </g>
            </g>
          </g>
        </g>
      </g>
    </g>
  </g>
</svg>
